<svg id="Capa_1" data-name="Capa 1" xmlns="http://www.w3.org/2000/svg" xmlns:xlink="http://www.w3.org/1999/xlink" viewBox="0 0 442.59 460.3"><defs><style>.cls-1{fill:url(#Degradado_sin_nombre_34);}.cls-2{fill:#419a35;}.cls-3{font-size:28.8px;fill:#010101;font-family:HelveNueThin;letter-spacing:0.05em;}</style><linearGradient id="Degradado_sin_nombre_34" x1="221.29" y1="412.38" x2="221.29" gradientUnits="userSpaceOnUse"><stop offset="0" stop-color="#429935"/><stop offset="0.28" stop-color="#419734"/><stop offset="0.44" stop-color="#3d8e31"/><stop offset="0.57" stop-color="#38802d"/><stop offset="0.69" stop-color="#2f6d26"/><stop offset="0.79" stop-color="#24531d"/><stop offset="0.88" stop-color="#173312"/><stop offset="0.97" stop-color="#070f06"/><stop offset="1" stop-color="#010101"/></linearGradient></defs><title>logo_final</title><path class="cls-1" d="M322.43,109.66c43.47-59.18,99-82.11,120.16-80.3,0,0-141.9-67.64-221.3,2.41s-37.74,122-37.74,122S194.43,77.65,253,76.45c0,0-77.89,45.88-51.92,102s88.76,73.66,88.76,73.66-112.31-8.45-136.47-69.44-32-105.86-77.89-103.85c0,0,26-67.62,90-18.11,0,0-22.29-38.61-58-30.19-16.33,3.85-41.66,15.72-58,48.9,0,0-27.17-1.21-49.51,30.8,0,0,75.47-35,96,14.49S129.21,242.49,210.73,260c62.91,13.51,121.07,26.05,144.66,47.08-3.68-1.74-8.32-2.6-14-2.6H316.23v107.9h17V366.14h5.86c7.71,0,10.63,3.24,10.63,13.26v19.73c0,8.79.62,10.48,1.55,13.25h17.26c-1.69-4-1.84-7.86-1.84-13.09v-19c0-12.18-2.78-20.19-11.26-22.81v-.31c7.55-3.08,11.1-10.17,11.1-21.27V329.3c0-.4,0-.79,0-1.17,0-2.25.43-64.17-84.51-103.09-61.15-28-59.15-63.25-59.15-63.25S279,168.83,322.43,109.66Zm27.1,229.66c0,8.63-3.85,11.41-10.17,11.41h-6.17V319.9h7.71c6,0,8.63,3.39,8.63,11.1Z"/><path class="cls-2" d="M49.25,387.41v-58c0-16.64,8.63-26.51,25-26.51s25,9.87,25,26.51v11.41h-16V328.37c0-7.09-3.39-10-8.48-10s-8.48,2.92-8.48,10v60.28c0,7.09,3.4,9.86,8.48,9.86s8.48-2.77,8.48-9.86v-16.5h16v15.26c0,16.65-8.63,26.52-25,26.52S49.25,404.06,49.25,387.41Z"/><path class="cls-2" d="M108.44,386.8V330.07c0-17.26,9.1-27.13,25.74-27.13s25.75,9.87,25.75,27.13V386.8c0,17.26-9.1,27.13-25.75,27.13S108.44,404.06,108.44,386.8ZM143,387.88V329c0-7.71-3.39-10.63-8.79-10.63s-8.78,2.92-8.78,10.63v58.89c0,7.7,3.39,10.63,8.78,10.63S143,395.58,143,387.88Z"/><path class="cls-2" d="M171.34,304.48h16.95V397h27.9v15.42H171.34Z"/><path class="cls-2" d="M224.36,304.48h17V412.39h-17Z"/><path class="cls-2" d="M254,304.48h25.59c17.57,0,25.12,8.17,25.12,24.82v4.32c0,11.1-3.39,18-10.94,21.12v.3c9.09,3.09,12.64,11.1,12.64,22.51v9.25c0,16.65-8.79,25.59-25.74,25.59H254Zm23.58,43.94c6.32,0,10.18-2.78,10.18-11.41v-6c0-7.71-2.62-11.1-8.63-11.1h-8.17v28.52ZM280.63,397c5.7,0,8.78-2.62,8.78-10.63v-9.41c0-10-3.23-13.1-10.94-13.1h-7.55V397Z"/><path class="cls-2" d="M378.36,304.48h17V412.39h-17Z"/><text class="cls-3" transform="translate(49.14 454.6)"><tspan xml:space="preserve">FACTURA  ELECTRÓNICA</tspan></text></svg>